<mxfile host="" modified="2020-05-24T15:21:41.060Z" agent="5.0 (X11; Linux x86_64) AppleWebKit/537.36 (KHTML, like Gecko) Code/1.45.0 Chrome/78.0.3904.130 Electron/7.2.4 Safari/537.36" version="13.1.3" etag="lrwgP8mNOWNbAz78NI_h" pages="2">
            <diagram id="diagramid" name="Diagram">
              <mxGraphModel><root><mxCell id="0"/><mxCell id="1" parent="0"/><mxCell id="2" value="Vpc8378EB38" style="outlineConnect=0;fontColor=#B3B3B3;gradientColor=#945DF2;gradientDirection=north;fillColor=#5A30B5;strokeColor=#ffffff;dashed=0;verticalLabelPosition=bottom;verticalAlign=top;align=center;html=1;fontSize=12;fontStyle=0;aspect=fixed;shape=mxgraph.aws4.resourceIcon;resIcon=mxgraph.aws4.vpc;" vertex="1" parent="1"><mxGeometry x="750" y="301.5625" width="50" height="50" as="geometry"/></mxCell><mxCell id="8" value="VpcPublicSubnet1NATGateway4D7517AA" style="outlineConnect=0;fontColor=#B3B3B3;gradientColor=#945DF2;gradientDirection=north;fillColor=#5A30B5;strokeColor=#ffffff;dashed=0;verticalLabelPosition=bottom;verticalAlign=top;align=center;html=1;fontSize=12;fontStyle=0;aspect=fixed;shape=mxgraph.aws4.resourceIcon;resIcon=mxgraph.aws4.nat_gateway;" vertex="1" parent="1"><mxGeometry y="750" width="50" height="50" as="geometry"/></mxCell><mxCell id="14" value="VpcPublicSubnet2NATGateway9182C01D" style="outlineConnect=0;fontColor=#B3B3B3;gradientColor=#945DF2;gradientDirection=north;fillColor=#5A30B5;strokeColor=#ffffff;dashed=0;verticalLabelPosition=bottom;verticalAlign=top;align=center;html=1;fontSize=12;fontStyle=0;aspect=fixed;shape=mxgraph.aws4.resourceIcon;resIcon=mxgraph.aws4.nat_gateway;" vertex="1" parent="1"><mxGeometry y="900" width="50" height="50" as="geometry"/></mxCell><mxCell id="23" value="VpcIGWD7BA715C" style="outlineConnect=0;fontColor=#B3B3B3;gradientColor=#F78E04;gradientDirection=north;fillColor=#D05C17;strokeColor=#ffffff;dashed=0;verticalLabelPosition=bottom;verticalAlign=top;align=center;html=1;fontSize=12;fontStyle=0;aspect=fixed;shape=mxgraph.aws4.resourceIcon;resIcon=mxgraph.aws4.ec2;" vertex="1" parent="1"><mxGeometry y="1050" width="50" height="50" as="geometry"/></mxCell><mxCell id="25" value="ledgerclusterAFFB8E80" style="outlineConnect=0;fontColor=#B3B3B3;gradientColor=#F78E04;gradientDirection=north;fillColor=#D05C17;strokeColor=#ffffff;dashed=0;verticalLabelPosition=bottom;verticalAlign=top;align=center;html=1;fontSize=12;fontStyle=0;aspect=fixed;shape=mxgraph.aws4.resourceIcon;resIcon=mxgraph.aws4.ecs;" vertex="1" parent="1"><mxGeometry x="250" width="50" height="50" as="geometry"/></mxCell><mxCell id="31" value="ledgerclusterledgerscalinggroupASGAEDB9AFB" style="outlineConnect=0;fontColor=#B3B3B3;gradientColor=#F78E04;gradientDirection=north;fillColor=#D05C17;strokeColor=#ffffff;dashed=0;verticalLabelPosition=bottom;verticalAlign=top;align=center;html=1;fontSize=12;fontStyle=0;aspect=fixed;shape=mxgraph.aws4.resourceIcon;resIcon=mxgraph.aws4.autoscaling;" vertex="1" parent="1"><mxGeometry y="1200" width="50" height="50" as="geometry"/></mxCell><mxCell id="34" value="ledgerclusterledgerscalinggroupDrainECSHookFunction5A9031CF" style="outlineConnect=0;fontColor=#B3B3B3;gradientColor=#F78E04;gradientDirection=north;fillColor=#D05C17;strokeColor=#ffffff;dashed=0;verticalLabelPosition=bottom;verticalAlign=top;align=center;html=1;fontSize=12;fontStyle=0;aspect=fixed;shape=mxgraph.aws4.resourceIcon;resIcon=mxgraph.aws4.lambda;" vertex="1" parent="1"><mxGeometry width="50" height="50" as="geometry"/></mxCell><mxCell id="41" value="ledgerclusterDefaultServiceDiscoveryNamespace137FD203" style="outlineConnect=0;fontColor=#B3B3B3;gradientColor=#aaaaaa;gradientDirection=north;fillColor=#aaaaaa;strokeColor=#ffffff;dashed=0;verticalLabelPosition=bottom;verticalAlign=top;align=center;html=1;fontSize=12;fontStyle=0;aspect=fixed;shape=mxgraph.aws4.resourceIcon;resIcon=mxgraph.aws4.servicediscovery;" vertex="1" parent="1"><mxGeometry x="500" y="251.5625" width="50" height="50" as="geometry"/></mxCell><mxCell id="43" value="LedgerTaskC6A427D0" style="outlineConnect=0;fontColor=#B3B3B3;gradientColor=#F78E04;gradientDirection=north;fillColor=#D05C17;strokeColor=#ffffff;dashed=0;verticalLabelPosition=bottom;verticalAlign=top;align=center;html=1;fontSize=12;fontStyle=0;aspect=fixed;shape=mxgraph.aws4.resourceIcon;resIcon=mxgraph.aws4.ecs;" vertex="1" parent="1"><mxGeometry x="250" y="100" width="50" height="50" as="geometry"/></mxCell><mxCell id="47" value="ledgerserviceService512045B5" style="outlineConnect=0;fontColor=#B3B3B3;gradientColor=#F78E04;gradientDirection=north;fillColor=#D05C17;strokeColor=#ffffff;dashed=0;verticalLabelPosition=bottom;verticalAlign=top;align=center;html=1;fontSize=12;fontStyle=0;aspect=fixed;shape=mxgraph.aws4.resourceIcon;resIcon=mxgraph.aws4.ecs;" vertex="1" parent="1"><mxGeometry y="100" width="50" height="50" as="geometry"/></mxCell><mxCell id="48" value="ledgerserviceCloudmapServiceF25FE350" style="outlineConnect=0;fontColor=#B3B3B3;gradientColor=#aaaaaa;gradientDirection=north;fillColor=#aaaaaa;strokeColor=#ffffff;dashed=0;verticalLabelPosition=bottom;verticalAlign=top;align=center;html=1;fontSize=12;fontStyle=0;aspect=fixed;shape=mxgraph.aws4.resourceIcon;resIcon=mxgraph.aws4.servicediscovery;" vertex="1" parent="1"><mxGeometry x="250" y="200" width="50" height="50" as="geometry"/></mxCell><mxCell id="50" value="NodeCluster7EAB6CD1" style="outlineConnect=0;fontColor=#B3B3B3;gradientColor=#F78E04;gradientDirection=north;fillColor=#D05C17;strokeColor=#ffffff;dashed=0;verticalLabelPosition=bottom;verticalAlign=top;align=center;html=1;fontSize=12;fontStyle=0;aspect=fixed;shape=mxgraph.aws4.resourceIcon;resIcon=mxgraph.aws4.ecs;" vertex="1" parent="1"><mxGeometry x="250" y="500" width="50" height="50" as="geometry"/></mxCell><mxCell id="51" value="NodeFargateServiceLB31F02518" style="outlineConnect=0;fontColor=#B3B3B3;gradientColor=#aaaaaa;gradientDirection=north;fillColor=#aaaaaa;strokeColor=#ffffff;dashed=0;verticalLabelPosition=bottom;verticalAlign=top;align=center;html=1;fontSize=12;fontStyle=0;aspect=fixed;shape=mxgraph.aws4.resourceIcon;resIcon=mxgraph.aws4.elasticloadbalancingv2;" vertex="1" parent="1"><mxGeometry x="250" y="300" width="50" height="50" as="geometry"/></mxCell><mxCell id="54" value="NodeFargateServiceLBPublicListener48094424" style="outlineConnect=0;fontColor=#B3B3B3;gradientColor=#aaaaaa;gradientDirection=north;fillColor=#aaaaaa;strokeColor=#ffffff;dashed=0;verticalLabelPosition=bottom;verticalAlign=top;align=center;html=1;fontSize=12;fontStyle=0;aspect=fixed;shape=mxgraph.aws4.resourceIcon;resIcon=mxgraph.aws4.elasticloadbalancingv2;" vertex="1" parent="1"><mxGeometry y="350" width="50" height="50" as="geometry"/></mxCell><mxCell id="55" value="NodeFargateServiceLBPublicListenerECSGroup4FCDE611" style="outlineConnect=0;fontColor=#B3B3B3;gradientColor=#aaaaaa;gradientDirection=north;fillColor=#aaaaaa;strokeColor=#ffffff;dashed=0;verticalLabelPosition=bottom;verticalAlign=top;align=center;html=1;fontSize=12;fontStyle=0;aspect=fixed;shape=mxgraph.aws4.resourceIcon;resIcon=mxgraph.aws4.elasticloadbalancingv2;" vertex="1" parent="1"><mxGeometry x="250" y="400" width="50" height="50" as="geometry"/></mxCell><mxCell id="57" value="NodeFargateServiceTaskDefA3650B6D" style="outlineConnect=0;fontColor=#B3B3B3;gradientColor=#F78E04;gradientDirection=north;fillColor=#D05C17;strokeColor=#ffffff;dashed=0;verticalLabelPosition=bottom;verticalAlign=top;align=center;html=1;fontSize=12;fontStyle=0;aspect=fixed;shape=mxgraph.aws4.resourceIcon;resIcon=mxgraph.aws4.ecs;" vertex="1" parent="1"><mxGeometry x="250" y="600" width="50" height="50" as="geometry"/></mxCell><mxCell id="61" value="NodeFargateServiceB42BB037" style="outlineConnect=0;fontColor=#B3B3B3;gradientColor=#F78E04;gradientDirection=north;fillColor=#D05C17;strokeColor=#ffffff;dashed=0;verticalLabelPosition=bottom;verticalAlign=top;align=center;html=1;fontSize=12;fontStyle=0;aspect=fixed;shape=mxgraph.aws4.resourceIcon;resIcon=mxgraph.aws4.ecs;" vertex="1" parent="1"><mxGeometry y="500" width="50" height="50" as="geometry"/></mxCell><mxCell id="ledgerclusterAFFB8E80|ledgerclusterledgerscalinggroupDrainECSHookFunction5A9031CF" value="Variable" style="edgeStyle=orthogonalEdgeStyle;rounded=1;orthogonalLoop=1;jettySize=auto;html=1;labelBackgroundColor=none;fontColor=#EA6B66;noEdgeStyle=1;orthogonal=1;" edge="1" parent="1" source="34" target="25"><mxGeometry relative="1" as="geometry"><Array as="points"><mxPoint x="62" y="25"/><mxPoint x="238" y="15"/></Array></mxGeometry></mxCell><mxCell id="Vpc8378EB38|ledgerclusterDefaultServiceDiscoveryNamespace137FD203" value="Vpc" style="edgeStyle=orthogonalEdgeStyle;rounded=1;orthogonalLoop=1;jettySize=auto;html=1;labelBackgroundColor=none;fontColor=#EA6B66;noEdgeStyle=1;orthogonal=1;" edge="1" parent="1" source="41" target="2"><mxGeometry relative="1" as="geometry"><Array as="points"><mxPoint x="562" y="276.5625"/><mxPoint x="738" y="316.5625"/></Array></mxGeometry></mxCell><mxCell id="ledgerclusterAFFB8E80|ledgerserviceService512045B5" value="Cluster" style="edgeStyle=orthogonalEdgeStyle;rounded=1;orthogonalLoop=1;jettySize=auto;html=1;labelBackgroundColor=none;fontColor=#EA6B66;noEdgeStyle=1;orthogonal=1;" edge="1" parent="1" source="47" target="25"><mxGeometry relative="1" as="geometry"><Array as="points"><mxPoint x="62" y="111.66666666666667"/><mxPoint x="238" y="35"/></Array></mxGeometry></mxCell><mxCell id="LedgerTaskC6A427D0|ledgerserviceService512045B5" value="TaskDefinition" style="edgeStyle=orthogonalEdgeStyle;rounded=1;orthogonalLoop=1;jettySize=auto;html=1;labelBackgroundColor=none;fontColor=#EA6B66;noEdgeStyle=1;orthogonal=1;" edge="1" parent="1" source="47" target="43"><mxGeometry relative="1" as="geometry"><Array as="points"><mxPoint x="64" y="125"/><mxPoint x="238" y="125"/></Array></mxGeometry></mxCell><mxCell id="ledgerserviceCloudmapServiceF25FE350|ledgerserviceService512045B5" value="RegistryArn" style="edgeStyle=orthogonalEdgeStyle;rounded=1;orthogonalLoop=1;jettySize=auto;html=1;labelBackgroundColor=none;fontColor=#EA6B66;noEdgeStyle=1;orthogonal=1;" edge="1" parent="1" source="47" target="48"><mxGeometry relative="1" as="geometry"><Array as="points"><mxPoint x="62" y="138.33333333333334"/><mxPoint x="238" y="225"/></Array></mxGeometry></mxCell><mxCell id="ledgerclusterDefaultServiceDiscoveryNamespace137FD203|ledgerserviceCloudmapServiceF25FE350" value="NamespaceId" style="edgeStyle=orthogonalEdgeStyle;rounded=1;orthogonalLoop=1;jettySize=auto;html=1;labelBackgroundColor=none;fontColor=#EA6B66;noEdgeStyle=1;orthogonal=1;" edge="1" parent="1" source="48" target="41"><mxGeometry relative="1" as="geometry"><Array as="points"><mxPoint x="312" y="225"/><mxPoint x="488" y="276.5625"/></Array></mxGeometry></mxCell><mxCell id="NodeFargateServiceLBPublicListenerECSGroup4FCDE611|NodeFargateServiceLBPublicListener48094424" value="TargetGroupArn" style="edgeStyle=orthogonalEdgeStyle;rounded=1;orthogonalLoop=1;jettySize=auto;html=1;labelBackgroundColor=none;fontColor=#EA6B66;noEdgeStyle=1;orthogonal=1;" edge="1" parent="1" source="54" target="55"><mxGeometry relative="1" as="geometry"><Array as="points"><mxPoint x="62" y="385"/><mxPoint x="238" y="415"/></Array></mxGeometry></mxCell><mxCell id="NodeFargateServiceLB31F02518|NodeFargateServiceLBPublicListener48094424" value="LoadBalancerArn" style="edgeStyle=orthogonalEdgeStyle;rounded=1;orthogonalLoop=1;jettySize=auto;html=1;labelBackgroundColor=none;fontColor=#EA6B66;noEdgeStyle=1;orthogonal=1;" edge="1" parent="1" source="54" target="51"><mxGeometry relative="1" as="geometry"><Array as="points"><mxPoint x="62" y="365"/><mxPoint x="238" y="325"/></Array></mxGeometry></mxCell><mxCell id="Vpc8378EB38|NodeFargateServiceLBPublicListenerECSGroup4FCDE611" value="VpcId" style="edgeStyle=orthogonalEdgeStyle;rounded=1;orthogonalLoop=1;jettySize=auto;html=1;labelBackgroundColor=none;fontColor=#EA6B66;noEdgeStyle=1;orthogonal=1;" edge="1" parent="1" source="55" target="2"><mxGeometry relative="1" as="geometry"><Array as="points"><mxPoint x="312" y="425"/><mxPoint x="400" y="376.5625"/><mxPoint x="650" y="376.5625"/><mxPoint x="738" y="336.5625"/></Array></mxGeometry></mxCell><mxCell id="NodeCluster7EAB6CD1|NodeFargateServiceB42BB037" value="Cluster" style="edgeStyle=orthogonalEdgeStyle;rounded=1;orthogonalLoop=1;jettySize=auto;html=1;labelBackgroundColor=none;fontColor=#EA6B66;noEdgeStyle=1;orthogonal=1;" edge="1" parent="1" source="61" target="50"><mxGeometry relative="1" as="geometry"><Array as="points"><mxPoint x="64" y="525"/><mxPoint x="238" y="525"/></Array></mxGeometry></mxCell><mxCell id="NodeFargateServiceLBPublicListenerECSGroup4FCDE611|NodeFargateServiceB42BB037" value="TargetGroupArn" style="edgeStyle=orthogonalEdgeStyle;rounded=1;orthogonalLoop=1;jettySize=auto;html=1;labelBackgroundColor=none;fontColor=#EA6B66;noEdgeStyle=1;orthogonal=1;" edge="1" parent="1" source="61" target="55"><mxGeometry relative="1" as="geometry"><Array as="points"><mxPoint x="62" y="511.6666666666667"/><mxPoint x="238" y="435"/></Array></mxGeometry></mxCell><mxCell id="NodeFargateServiceTaskDefA3650B6D|NodeFargateServiceB42BB037" value="TaskDefinition" style="edgeStyle=orthogonalEdgeStyle;rounded=1;orthogonalLoop=1;jettySize=auto;html=1;labelBackgroundColor=none;fontColor=#EA6B66;noEdgeStyle=1;orthogonal=1;" edge="1" parent="1" source="61" target="57"><mxGeometry relative="1" as="geometry"><Array as="points"><mxPoint x="62" y="538.3333333333334"/><mxPoint x="238" y="625"/></Array></mxGeometry></mxCell></root></mxGraphModel>
            </diagram>
          </mxfile>